<svg width="112" height="60" viewBox="0 0 112 60" fill="none" xmlns="http://www.w3.org/2000/svg">
<rect width="60" height="60" rx="30" fill="#AB00FF" fill-opacity="0.08"/>
<g clip-path="url(#clip0_51_796)">
<path d="M36.8438 37.9688C36.0585 37.9688 35.3848 38.4542 35.106 39.1406H33.4688V40.5469H35.106C35.3848 41.2333 36.0585 41.7188 36.8438 41.7188C37.8776 41.7188 38.7188 40.8776 38.7188 39.8438C38.7188 38.8099 37.8776 37.9688 36.8438 37.9688Z" fill="#7F34A4"/>
<path d="M40.125 33.9844C39.8168 33.9844 39.526 34.0596 39.2692 34.1919L37.5283 32.7411C37.4019 32.6358 37.2426 32.5781 37.0781 32.5781H33.4688V33.9844H36.8235L38.35 35.2565C38.2855 35.4458 38.25 35.6484 38.25 35.8594C38.25 36.8932 39.0911 37.7344 40.125 37.7344C41.1589 37.7344 42 36.8932 42 35.8594C42 34.8255 41.1589 33.9844 40.125 33.9844Z" fill="#7F34A4"/>
<path d="M40.125 28.125C39.3397 28.125 38.6661 28.6104 38.3873 29.2969H33.4688V30.7031H38.3873C38.6661 31.3896 39.3397 31.875 40.125 31.875C41.1589 31.875 42 31.0339 42 30C42 28.9661 41.1589 28.125 40.125 28.125Z" fill="#7F34A4"/>
<path d="M37.5283 27.2589L39.2692 25.8081C39.526 25.9404 39.8168 26.0156 40.125 26.0156C41.1589 26.0156 42 25.1745 42 24.1406C42 23.1068 41.1589 22.2656 40.125 22.2656C39.0911 22.2656 38.25 23.1068 38.25 24.1406C38.25 24.3516 38.2855 24.5542 38.35 24.7435L36.8235 26.0156H33.4688V27.4219H37.0781C37.2426 27.4219 37.4019 27.3642 37.5283 27.2589Z" fill="#7F34A4"/>
<path d="M36.8438 22.0312C37.8776 22.0312 38.7188 21.1901 38.7188 20.1562C38.7188 19.1224 37.8776 18.2812 36.8438 18.2812C36.0585 18.2812 35.3848 18.7667 35.106 19.4531H33.4688V20.8594H35.106C35.3848 21.5458 36.0585 22.0312 36.8438 22.0312Z" fill="#7F34A4"/>
<path d="M25.0312 30C25.0312 32.7139 27.2392 34.9219 29.9531 34.9219C30.7076 34.9219 31.4228 34.751 32.0625 34.4463V25.5537C31.4228 25.249 30.7076 25.0781 29.9531 25.0781C27.2392 25.0781 25.0312 27.2861 25.0312 30Z" fill="#7F34A4"/>
<path d="M31.3594 18.0469H28.5469C28.1586 18.0469 27.8438 18.3617 27.8438 18.75V19.6652C26.5244 19.934 25.2617 20.4571 24.1371 21.2008L23.4897 20.5535C23.2151 20.2789 22.77 20.2789 22.4954 20.5535L20.5066 22.5422C20.232 22.8168 20.232 23.262 20.5066 23.5366L21.1539 24.1839C20.4102 25.3086 19.8871 26.5712 19.6184 27.8906H18.7031C18.3148 27.8906 18 28.2054 18 28.5938V31.4062C18 31.7946 18.3148 32.1094 18.7031 32.1094H19.6184C19.8871 33.4288 20.4102 34.6914 21.1539 35.8161L20.5066 36.4635C20.3747 36.5953 20.3007 36.7741 20.3007 36.9606C20.3007 37.1471 20.3747 37.3259 20.5066 37.4577L22.4954 39.4465C22.77 39.7211 23.2151 39.7211 23.4897 39.4465L24.1371 38.7992C25.2617 39.5429 26.5244 40.0659 27.8438 40.3348V41.25C27.8438 41.6383 28.1586 41.9531 28.5469 41.9531H31.3594C31.7477 41.9531 32.0625 41.6383 32.0625 41.25V35.9662C31.4024 36.2003 30.6925 36.3281 29.9531 36.3281C26.4638 36.3281 23.625 33.4893 23.625 30C23.625 26.5107 26.4638 23.6719 29.9531 23.6719C30.6925 23.6719 31.4024 23.7998 32.0625 24.0338V18.75C32.0625 18.3617 31.7477 18.0469 31.3594 18.0469Z" fill="#7F34A4"/>
</g>
<rect x="52" width="60" height="60" rx="30" fill="#7F34A4"/>
<path d="M79.6319 22.5076L80.3345 24.4588C81.115 26.6244 82.8204 28.3298 84.986 29.1103L86.9373 29.8129C87.1131 29.8768 87.1131 30.1262 86.9373 30.1892L84.986 30.8918C82.8204 31.6723 81.115 33.3777 80.3345 35.5433L79.6319 37.4946C79.568 37.6704 79.3186 37.6704 79.2556 37.4946L78.553 35.5433C77.7725 33.3777 76.0671 31.6723 73.9015 30.8918L71.9503 30.1892C71.7744 30.1253 71.7744 29.8759 71.9503 29.8129L73.9015 29.1103C76.0671 28.3298 77.7725 26.6244 78.553 24.4588L79.2556 22.5076C79.3186 22.3308 79.568 22.3308 79.6319 22.5076Z" fill="white"/>
<path d="M88.4152 17.8176L88.7713 18.8055C89.1668 19.9018 90.0304 20.7655 91.1268 21.161L92.1147 21.5171C92.2039 21.5495 92.2039 21.6755 92.1147 21.7078L91.1268 22.064C90.0304 22.4595 89.1668 23.3231 88.7713 24.4195L88.4152 25.4073C88.3828 25.4966 88.2568 25.4966 88.2244 25.4073L87.8683 24.4195C87.4728 23.3231 86.6092 22.4595 85.5128 22.064L84.5249 21.7078C84.4357 21.6755 84.4357 21.5495 84.5249 21.5171L85.5128 21.161C86.6092 20.7655 87.4728 19.9018 87.8683 18.8055L88.2244 17.8176C88.2568 17.7275 88.3837 17.7275 88.4152 17.8176Z" fill="white"/>
<path d="M88.4152 34.5982L88.7713 35.5861C89.1668 36.6824 90.0304 37.5461 91.1268 37.9416L92.1147 38.2977C92.2039 38.3301 92.2039 38.4561 92.1147 38.4884L91.1268 38.8446C90.0304 39.2401 89.1668 40.1037 88.7713 41.2001L88.4152 42.1879C88.3828 42.2772 88.2568 42.2772 88.2244 42.1879L87.8683 41.2001C87.4728 40.1037 86.6092 39.2401 85.5128 38.8446L84.5249 38.4884C84.4357 38.4561 84.4357 38.3301 84.5249 38.2977L85.5128 37.9416C86.6092 37.5461 87.4728 36.6824 87.8683 35.5861L88.2244 34.5982C88.2568 34.5089 88.3837 34.5089 88.4152 34.5982Z" fill="white"/>
<defs>
<clipPath id="clip0_51_796">
<rect width="24" height="24" fill="white" transform="translate(18 18)"/>
</clipPath>
</defs>
</svg>
